<?xml version="1.0"?>
<svg xmlns="http://www.w3.org/2000/svg" xmlns:xlink="http://www.w3.org/1999/xlink" xmlns:svgjs="http://svgjs.com/svgjs" version="1.1" width="512" height="512" x="0" y="0" viewBox="0 0 512 512" style="enable-background:new 0 0 512 512" xml:space="preserve" class=""><g>
<g xmlns="http://www.w3.org/2000/svg">
	<g>
		<path d="M422.87,61.865C376.498,21.971,317.236,0,256,0C187.62,0,123.333,26.629,74.98,74.98C26.629,123.333,0,187.62,0,256    c0,34.746,6.848,68.452,20.354,100.183c1.215,2.853,3.988,4.564,6.905,4.564c0.979,0,1.976-0.193,2.934-0.601    c3.812-1.623,5.586-6.027,3.963-9.839C21.445,320.445,15,288.716,15,256c0-64.373,25.068-124.894,70.588-170.412    C131.106,40.068,191.627,15,256,15c57.647,0,113.436,20.682,157.087,58.236c3.14,2.699,7.875,2.346,10.577-0.794    C426.365,69.301,426.01,64.566,422.87,61.865z" fill="#ffffff" data-original="#000000" style="" class=""/>
	</g>
</g>
<g xmlns="http://www.w3.org/2000/svg">
	<g>
		<path d="M447.919,86.602c-2.742-3.105-7.482-3.398-10.586-0.656s-3.398,7.481-0.656,10.586C475.577,140.572,497,197.206,497,256    c0,64.373-25.068,124.894-70.588,170.412C380.894,471.932,320.373,497,256,497c-42.091,0-83.517-11.01-119.799-31.838    c-35.205-20.21-64.988-49.223-86.128-83.901c-2.157-3.536-6.771-4.655-10.309-2.5c-3.536,2.156-4.655,6.771-2.5,10.309    c22.451,36.827,54.08,67.638,91.469,89.102C167.285,500.302,211.293,512,256,512c68.38,0,132.667-26.629,181.02-74.98    C485.371,388.667,512,324.38,512,256C512,193.546,489.242,133.385,447.919,86.602z" fill="#ffffff" data-original="#000000" style="" class=""/>
	</g>
</g>
<g xmlns="http://www.w3.org/2000/svg">
	<g>
		<path d="M256,44.506C139.382,44.506,44.506,139.382,44.506,256S139.382,467.494,256,467.494S467.494,372.618,467.494,256    S372.618,44.506,256,44.506z M256,452.494c-108.348,0-196.494-88.146-196.494-196.494S147.652,59.506,256,59.506    S452.494,147.652,452.494,256S364.348,452.494,256,452.494z" fill="#ffffff" data-original="#000000" style="" class=""/>
	</g>
</g>
<g xmlns="http://www.w3.org/2000/svg">
	<g>
		<path d="M235.492,149.447h-59.997c-4.143,0-7.5,3.357-7.5,7.5v198.105c0,4.143,3.357,7.5,7.5,7.5h59.997    c4.143,0,7.5-3.357,7.5-7.5V156.947C242.992,152.805,239.635,149.447,235.492,149.447z M227.992,347.553h-44.997V164.447h44.997    V347.553z" fill="#ffffff" data-original="#000000" style="" class=""/>
	</g>
</g>
<g xmlns="http://www.w3.org/2000/svg">
	<g>
		<path d="M336.505,195.411c4.143,0,7.5-3.357,7.5-7.5v-30.964c0-4.142-3.358-7.5-7.5-7.5h-59.997c-4.143,0-7.5,3.357-7.5,7.5    v198.105c0,4.143,3.357,7.5,7.5,7.5h59.997c4.143,0,7.5-3.357,7.5-7.5V222.089c0-4.143-3.357-7.5-7.5-7.5s-7.5,3.357-7.5,7.5    v125.464h-44.997V164.447h44.997v23.464C329.005,192.054,332.362,195.411,336.505,195.411z" fill="#ffffff" data-original="#000000" style="" class=""/>
	</g>
</g>
<g xmlns="http://www.w3.org/2000/svg">
</g>
<g xmlns="http://www.w3.org/2000/svg">
</g>
<g xmlns="http://www.w3.org/2000/svg">
</g>
<g xmlns="http://www.w3.org/2000/svg">
</g>
<g xmlns="http://www.w3.org/2000/svg">
</g>
<g xmlns="http://www.w3.org/2000/svg">
</g>
<g xmlns="http://www.w3.org/2000/svg">
</g>
<g xmlns="http://www.w3.org/2000/svg">
</g>
<g xmlns="http://www.w3.org/2000/svg">
</g>
<g xmlns="http://www.w3.org/2000/svg">
</g>
<g xmlns="http://www.w3.org/2000/svg">
</g>
<g xmlns="http://www.w3.org/2000/svg">
</g>
<g xmlns="http://www.w3.org/2000/svg">
</g>
<g xmlns="http://www.w3.org/2000/svg">
</g>
<g xmlns="http://www.w3.org/2000/svg">
</g>
</g></svg>
