<?xml version="1.0"?>
<svg xmlns="http://www.w3.org/2000/svg" xmlns:xlink="http://www.w3.org/1999/xlink" xmlns:svgjs="http://svgjs.com/svgjs" version="1.1" width="512" height="512" x="0" y="0" viewBox="0 0 512.001 512.001" style="enable-background:new 0 0 512 512" xml:space="preserve"><g><g xmlns="http://www.w3.org/2000/svg"><path d="m60 421.001h289.502c5.522 0 10-4.477 10-10v-207.501c0-5.523-4.478-10-10-10h-289.502c-5.523 0-10 4.477-10 10v207.501c0 5.523 4.477 10 10 10zm10-20v-44.826l57.904-57.905c3.899-3.898 10.244-3.899 14.142 0l77.531 77.532c3.907 3.905 10.238 3.905 14.143 0l38.859-38.858c3.898-3.899 10.242-3.898 14.141 0l52.783 52.783v11.274zm269.502-187.501v147.942l-38.641-38.641c-11.696-11.695-30.728-11.696-42.426 0l-31.788 31.788-70.46-70.461c-11.696-11.696-30.729-11.696-42.426 0l-43.761 43.762v-114.39z" fill="#ffffff" data-original="#000000" style=""/><path d="m502.001 41h-389.501c-5.523 0-10 4.477-10 10v41.25h-41.25c-5.523 0-10 4.477-10 10v41.25h-41.25c-5.523 0-10 4.477-10 10v307.501c0 5.523 4.477 10 10 10h389.501c5.522 0 10-4.477 10-10v-41.25h41.25c5.522 0 10-4.477 10-10v-41.25h41.25c5.522 0 10-4.477 10-10v-307.501c0-5.523-4.478-10-10-10zm-112.5 410.001h-369.501v-287.501h369.501zm51.25-51.25h-31.25v-246.251c0-5.523-4.478-10-10-10h-328.251v-31.25h369.501zm51.25-51.25h-31.25v-246.251c0-5.523-4.478-10-10-10h-328.251v-31.25h369.501z" fill="#ffffff" data-original="#000000" style=""/><path d="m228.292 306.469c19.299 0 35-15.701 35-35-1.76-46.369-68.248-46.356-70.001 0 .001 19.299 15.702 35 35.001 35zm0-50c8.271 0 15 6.729 15 15-.754 19.873-29.249 19.866-30 0 0-8.271 6.729-15 15-15z" fill="#ffffff" data-original="#000000" style=""/></g></g></svg>
