<?xml version="1.0"?>
<svg xmlns="http://www.w3.org/2000/svg" xmlns:xlink="http://www.w3.org/1999/xlink" xmlns:svgjs="http://svgjs.com/svgjs" version="1.1" width="512" height="512" x="0" y="0" viewBox="0 0 512 512" style="enable-background:new 0 0 512 512" xml:space="preserve" class=""><g>
<g xmlns="http://www.w3.org/2000/svg">
	<g>
		<path d="M465.135,263.654l-200.5-190.12V39.223h11.949c4.769,0,8.634-3.866,8.634-8.634c0-4.768-3.865-8.634-8.634-8.634h-11.949    V8.634c0-4.768-3.865-8.634-8.634-8.634c-4.769,0-8.634,3.866-8.634,8.634v13.321h-11.95c-4.769,0-8.634,3.866-8.634,8.634    c0,4.768,3.865,8.634,8.634,8.634h11.95v34.311L46.866,263.654c-3.46,3.281-3.605,8.745-0.325,12.206    c3.281,3.46,8.747,3.605,12.206,0.325L256.001,89.144l130.885,124.109v281.48h-59.402v-105.52    c0-39.419-32.068-71.488-71.488-71.488c-39.412,0-71.476,32.069-71.476,71.488v105.52h-59.406v-252.41    c0-4.768-3.865-8.634-8.634-8.634c-4.769,0-8.634,3.866-8.634,8.634v261.044c0,4.768,3.865,8.634,8.634,8.634h279.04    c4.769,0,8.634-3.866,8.634-8.634v-273.74l49.1,46.558c1.669,1.583,3.806,2.369,5.939,2.369c2.286,0,4.569-0.903,6.266-2.694    C468.74,272.399,468.595,266.934,465.135,263.654z M310.218,494.732h-45.587V351.108c0-4.768-3.865-8.634-8.634-8.634    c-4.769,0-8.634,3.866-8.634,8.634v143.624h-45.575v-105.52c0-29.897,24.317-54.22,54.209-54.22    c29.897,0,54.22,24.323,54.22,54.22V494.732z" fill="#ffffff" data-original="#000000" style="" class=""/>
	</g>
</g>
<g xmlns="http://www.w3.org/2000/svg">
	<g>
		<path d="M279.6,414.423c-4.769,0-8.634,3.866-8.634,8.634v17.268c0,4.768,3.864,8.634,8.634,8.634s8.634-3.866,8.634-8.634    v-17.268C288.234,418.289,284.369,414.423,279.6,414.423z" fill="#ffffff" data-original="#000000" style="" class=""/>
	</g>
</g>
<g xmlns="http://www.w3.org/2000/svg">
	<g>
		<path d="M232.402,414.423c-4.769,0-8.634,3.866-8.634,8.634v17.268c0,4.768,3.865,8.634,8.634,8.634    c4.769,0,8.634-3.866,8.634-8.634v-17.268C241.035,418.289,237.17,414.423,232.402,414.423z" fill="#ffffff" data-original="#000000" style="" class=""/>
	</g>
</g>
<g xmlns="http://www.w3.org/2000/svg">
	<g>
		<path d="M256.003,164.618c-33.192,0-60.195,27.004-60.195,60.196s27.003,60.195,60.195,60.195s60.195-27.003,60.195-60.195    S289.195,164.618,256.003,164.618z M247.369,266.869c-16.757-3.435-29.986-16.664-33.421-33.421h33.421V266.869z M247.369,216.18    h-33.421c3.435-16.758,16.664-29.987,33.421-33.422V216.18z M264.637,182.758c16.757,3.435,29.986,16.664,33.421,33.422h-33.421    V182.758z M264.637,266.869v-33.421h33.421C294.623,250.204,281.393,263.434,264.637,266.869z" fill="#ffffff" data-original="#000000" style="" class=""/>
	</g>
</g>
<g xmlns="http://www.w3.org/2000/svg">
</g>
<g xmlns="http://www.w3.org/2000/svg">
</g>
<g xmlns="http://www.w3.org/2000/svg">
</g>
<g xmlns="http://www.w3.org/2000/svg">
</g>
<g xmlns="http://www.w3.org/2000/svg">
</g>
<g xmlns="http://www.w3.org/2000/svg">
</g>
<g xmlns="http://www.w3.org/2000/svg">
</g>
<g xmlns="http://www.w3.org/2000/svg">
</g>
<g xmlns="http://www.w3.org/2000/svg">
</g>
<g xmlns="http://www.w3.org/2000/svg">
</g>
<g xmlns="http://www.w3.org/2000/svg">
</g>
<g xmlns="http://www.w3.org/2000/svg">
</g>
<g xmlns="http://www.w3.org/2000/svg">
</g>
<g xmlns="http://www.w3.org/2000/svg">
</g>
<g xmlns="http://www.w3.org/2000/svg">
</g>
</g></svg>
