<?xml version="1.0"?>
<svg xmlns="http://www.w3.org/2000/svg" xmlns:xlink="http://www.w3.org/1999/xlink" xmlns:svgjs="http://svgjs.com/svgjs" version="1.1" width="512" height="512" x="0" y="0" viewBox="0 0 512 512" style="enable-background:new 0 0 512 512" xml:space="preserve" class=""><g>
<g xmlns="http://www.w3.org/2000/svg">
	<g>
		<path d="M496,112h-48c-4.253-0.025-8.34,1.645-11.36,4.64L409.44,144H384v-16c0-26.51-21.49-48-48-48H48c-26.51,0-48,21.49-48,48    v256c0,26.51,21.49,48,48,48h288c26.51,0,48-21.49,48-48v-16h25.44l27.36,27.36c2.98,2.956,7.003,4.622,11.2,4.64h48    c8.837,0,16-7.163,16-16V128C512,119.163,504.837,112,496,112z M480,368h-25.44l-27.36-27.36c-2.98-2.956-7.003-4.622-11.2-4.64    h-48c-8.837,0-16,7.163-16,16v32c0,8.837-7.163,16-16,16H48c-8.837,0-16-7.163-16-16V128c0-8.837,7.163-16,16-16h288    c8.837,0,16,7.163,16,16v160h32V176h32c4.253,0.025,8.341-1.645,11.36-4.64l27.2-27.36H480V368z" fill="#ffffff" data-original="#000000" style="" class=""/>
	</g>
</g>
<g xmlns="http://www.w3.org/2000/svg">
</g>
<g xmlns="http://www.w3.org/2000/svg">
</g>
<g xmlns="http://www.w3.org/2000/svg">
</g>
<g xmlns="http://www.w3.org/2000/svg">
</g>
<g xmlns="http://www.w3.org/2000/svg">
</g>
<g xmlns="http://www.w3.org/2000/svg">
</g>
<g xmlns="http://www.w3.org/2000/svg">
</g>
<g xmlns="http://www.w3.org/2000/svg">
</g>
<g xmlns="http://www.w3.org/2000/svg">
</g>
<g xmlns="http://www.w3.org/2000/svg">
</g>
<g xmlns="http://www.w3.org/2000/svg">
</g>
<g xmlns="http://www.w3.org/2000/svg">
</g>
<g xmlns="http://www.w3.org/2000/svg">
</g>
<g xmlns="http://www.w3.org/2000/svg">
</g>
<g xmlns="http://www.w3.org/2000/svg">
</g>
</g></svg>
